<svg id="visual" viewBox="0 0 1200 350" width="1200" height="350" xmlns="http://www.w3.org/2000/svg" xmlns:xlink="http://www.w3.org/1999/xlink" version="1.1"><rect x="0" y="0" width="1200" height="350" fill="#001220"></rect><defs><linearGradient id="grad1_0" x1="70.8%" y1="100%" x2="100%" y2="0%"><stop offset="-18.57142857142857%" stop-color="#fbae3c" stop-opacity="1"></stop><stop offset="118.57142857142857%" stop-color="#fbae3c" stop-opacity="1"></stop></linearGradient></defs><defs><linearGradient id="grad1_1" x1="70.8%" y1="100%" x2="100%" y2="0%"><stop offset="-18.57142857142857%" stop-color="#fbae3c" stop-opacity="1"></stop><stop offset="118.57142857142857%" stop-color="#96446e" stop-opacity="1"></stop></linearGradient></defs><defs><linearGradient id="grad1_2" x1="70.8%" y1="100%" x2="100%" y2="0%"><stop offset="-18.57142857142857%" stop-color="#001220" stop-opacity="1"></stop><stop offset="118.57142857142857%" stop-color="#96446e" stop-opacity="1"></stop></linearGradient></defs><defs><linearGradient id="grad2_0" x1="0%" y1="100%" x2="29.2%" y2="0%"><stop offset="-18.57142857142857%" stop-color="#fbae3c" stop-opacity="1"></stop><stop offset="118.57142857142857%" stop-color="#fbae3c" stop-opacity="1"></stop></linearGradient></defs><defs><linearGradient id="grad2_1" x1="0%" y1="100%" x2="29.2%" y2="0%"><stop offset="-18.57142857142857%" stop-color="#96446e" stop-opacity="1"></stop><stop offset="118.57142857142857%" stop-color="#fbae3c" stop-opacity="1"></stop></linearGradient></defs><defs><linearGradient id="grad2_2" x1="0%" y1="100%" x2="29.2%" y2="0%"><stop offset="-18.57142857142857%" stop-color="#96446e" stop-opacity="1"></stop><stop offset="118.57142857142857%" stop-color="#001220" stop-opacity="1"></stop></linearGradient></defs><g transform="translate(1200, 350)"><path d="M-210 0C-204.8 -37.2 -199.6 -74.5 -181.9 -105C-164.1 -135.5 -133.9 -159.4 -101.5 -175.8C-69.1 -192.2 -34.6 -201.1 0 -210L0 0Z" fill="#3d3056"></path><path d="M-140 0C-136.5 -24.8 -133.1 -49.6 -121.2 -70C-109.4 -90.4 -89.3 -106.3 -67.7 -117.2C-46.1 -128.1 -23 -134.1 0 -140L0 0Z" fill="#e1685e"></path><path d="M-70 0C-68.3 -12.4 -66.5 -24.8 -60.6 -35C-54.7 -45.2 -44.6 -53.1 -33.8 -58.6C-23 -64.1 -11.5 -67 0 -70L0 0Z" fill="#fbae3c"></path></g><g transform="translate(0, 0)"><path d="M210 0C200.6 34.3 191.3 68.6 174.9 101C158.6 133.4 135.3 164 105 181.9C74.7 199.7 37.3 204.9 0 210L0 0Z" fill="#3d3056"></path><path d="M140 0C133.8 22.9 127.5 45.7 116.6 67.3C105.7 89 90.2 109.3 70 121.2C49.8 133.1 24.9 136.6 0 140L0 0Z" fill="#e1685e"></path><path d="M70 0C66.9 11.4 63.8 22.9 58.3 33.7C52.9 44.5 45.1 54.7 35 60.6C24.9 66.6 12.4 68.3 0 70L0 0Z" fill="#fbae3c"></path></g></svg>